<svg width="128" height="128" viewBox="0 0 2048 2048" fill="none" xmlns="http://www.w3.org/2000/svg">
<path d="M660.738 1581.52C589.608 1594.72 533.208 1577.51 482.678 1524.31C446.678 1486.42 426.098 1454.22 374.778 1433.85C359.318 1427.71 343.748 1424.4 327.138 1423.72C309.388 1422.99 263.692 1431.49 250.278 1424.43C245.376 1421.85 243.803 1417.45 243 1412.36C249.681 1383.64 369.858 1324.99 391.758 1295.83C394.898 1291.65 395.588 1288.76 394.288 1283.67C389.298 1264.19 378.708 1244.62 371.998 1225.4C358.068 1185.46 348.558 1141.65 343.328 1099.64C342.621 1094.13 341.985 1088.62 341.418 1083.09C340.851 1077.57 340.355 1072.04 339.928 1066.5C339.501 1060.97 339.141 1055.43 338.848 1049.88C338.555 1044.33 338.331 1038.79 338.178 1033.24C338.025 1027.69 337.938 1022.13 337.918 1016.58C337.898 1011.03 337.951 1005.48 338.078 999.93C338.198 994.376 338.388 988.826 338.648 983.28C338.901 977.733 339.228 972.19 339.628 966.65C340.021 961.116 340.485 955.586 341.018 950.06C341.551 944.533 342.155 939.013 342.828 933.5C343.495 927.986 344.231 922.483 345.038 916.99C345.845 911.496 346.721 906.013 347.668 900.54C348.608 895.066 349.618 889.606 350.698 884.16C351.778 878.713 352.925 873.28 354.138 867.86C355.351 862.446 356.631 857.046 357.978 851.66C359.325 846.273 360.738 840.903 362.218 835.55C363.698 830.196 365.245 824.863 366.858 819.55C368.471 814.236 370.148 808.943 371.888 803.67C373.635 798.403 375.445 793.156 377.318 787.93C379.191 782.703 381.128 777.5 383.128 772.32C385.135 767.14 387.205 761.986 389.338 756.86C391.465 751.733 393.658 746.633 395.918 741.56C398.178 736.486 400.498 731.443 402.878 726.43C405.258 721.41 407.701 716.423 410.208 711.47C412.715 706.516 415.285 701.593 417.918 696.7C420.545 691.806 423.231 686.95 425.978 682.13C428.731 677.303 431.541 672.513 434.408 667.76C437.275 663.006 440.201 658.286 443.188 653.6C446.168 648.92 449.208 644.276 452.308 639.67C455.408 635.063 458.565 630.496 461.778 625.97C464.991 621.443 468.261 616.956 471.588 612.51C474.915 608.063 478.295 603.656 481.728 599.29C485.195 594.83 488.718 590.416 492.298 586.05C495.878 581.676 499.508 577.35 503.188 573.07C506.875 568.79 510.611 564.556 514.398 560.37C518.191 556.183 522.031 552.043 525.918 547.95C529.811 543.856 533.755 539.81 537.748 535.81C541.741 531.816 545.781 527.87 549.868 523.97C553.955 520.076 558.091 516.233 562.278 512.44C566.465 508.646 570.695 504.903 574.968 501.21C579.248 497.523 583.571 493.89 587.938 490.31C592.298 486.723 596.708 483.193 601.168 479.72C605.621 476.246 610.115 472.83 614.648 469.47C619.188 466.103 623.768 462.796 628.388 459.55C633.008 456.303 637.668 453.11 642.368 449.97C647.068 446.836 651.805 443.763 656.578 440.75C661.351 437.73 666.161 434.77 671.008 431.87C675.855 428.976 680.738 426.14 685.658 423.36C690.578 420.58 695.528 417.863 700.508 415.21C705.495 412.556 710.515 409.963 715.568 407.43C720.615 404.903 725.691 402.436 730.798 400.03C735.911 397.623 741.051 395.28 746.218 393C751.385 390.72 756.581 388.506 761.808 386.36C767.028 384.206 772.275 382.12 777.548 380.1C782.828 378.08 788.128 376.126 793.448 374.24C798.768 372.346 804.111 370.523 809.478 368.77C814.851 367.01 820.241 365.32 825.648 363.7C831.055 362.073 836.485 360.513 841.938 359.02C847.385 357.533 852.848 356.113 858.328 354.76C863.815 353.4 869.315 352.113 874.828 350.9C880.341 349.68 885.871 348.526 891.418 347.44C896.958 346.36 902.511 345.346 908.078 344.4C913.651 343.453 919.231 342.576 924.818 341.77C930.411 340.963 936.011 340.226 941.618 339.56C969.318 336.2 998.308 334.7 1026.21 335.05C1061.95 335.49 1177.63 342.81 1201.89 363.52C1205.37 366.49 1206.75 369.28 1207.22 373.84C1205.92 379.73 1200.67 386.04 1195.61 389.25C1194.72 389.81 1193.8 390.33 1192.9 390.87C1194.23 394.03 1193.44 393.8 1196.96 395.34C1218.15 404.61 1243.43 408.09 1265.28 417.62C1281.4 424.65 1324.48 447.71 1338.53 450.55C1337.65 445.07 1337.08 440.28 1338.39 434.79C1339.39 430.61 1341.08 425.84 1345.14 423.73C1351.1 420.63 1357.71 422.48 1363.61 424.81C1383.83 432.76 1403.79 448.51 1421.6 461.05C1424.88 463.363 1428.15 465.706 1431.4 468.08C1434.64 470.453 1437.87 472.856 1441.07 475.29C1444.27 477.716 1447.46 480.173 1450.62 482.66C1453.78 485.146 1456.91 487.663 1460.03 490.21C1463.15 492.75 1466.24 495.316 1469.31 497.91C1472.38 500.51 1475.43 503.133 1478.45 505.78C1481.47 508.433 1484.47 511.11 1487.45 513.81C1490.43 516.516 1493.38 519.246 1496.31 522C1499.23 524.753 1502.14 527.533 1505.02 530.34C1507.9 533.146 1510.75 535.98 1513.59 538.84C1516.41 541.693 1519.22 544.573 1522 547.48C1524.78 550.386 1527.53 553.32 1530.26 556.28C1532.98 559.233 1535.68 562.21 1538.36 565.21C1541.03 568.216 1543.68 571.243 1546.3 574.29C1548.92 577.343 1551.51 580.416 1554.08 583.51C1556.64 586.603 1559.18 589.72 1561.7 592.86C1564.2 596 1566.69 599.163 1569.15 602.35C1571.6 605.53 1574.03 608.733 1576.43 611.96C1578.83 615.186 1581.2 618.436 1583.54 621.71C1585.88 624.976 1588.19 628.263 1590.48 631.57C1592.76 634.883 1595.01 638.213 1597.24 641.56C1599.46 644.913 1601.66 648.283 1603.83 651.67C1605.99 655.056 1608.13 658.463 1610.23 661.89C1612.33 665.316 1614.41 668.76 1616.46 672.22C1618.5 675.68 1620.51 679.16 1622.5 682.66C1624.48 686.16 1626.43 689.676 1628.35 693.21C1630.27 696.743 1632.16 700.29 1634.02 703.85C1635.88 707.416 1637.7 711 1639.5 714.6C1641.29 718.2 1643.05 721.813 1644.79 725.44C1646.52 729.066 1648.22 732.71 1649.89 736.37C1651.55 740.03 1653.19 743.703 1654.79 747.39C1656.39 751.083 1657.96 754.786 1659.5 758.5C1711.33 883.53 1726.68 1033.51 1691.94 1165.25C1680.53 1208.52 1663.38 1249.21 1646.29 1290.39C1676.32 1317.88 1726.32 1347.7 1761.42 1371.72C1774.43 1380.62 1790.42 1389.51 1801.01 1401.27C1804.17 1404.78 1805.37 1406.74 1804.73 1411.58C1803.87 1417.97 1799.28 1422.92 1793.19 1424.69C1778.25 1429.05 1758.92 1425.24 1743.38 1424.67C1723.09 1423.91 1703.05 1425.03 1683.39 1430.44C1609.23 1450.86 1592.21 1509.03 1536.75 1549.52C1485.47 1586.96 1444.97 1590.23 1384.56 1580.5C1372.11 1588.44 1360.25 1597.24 1348.3 1605.91L1351.73 1611.56C1360.22 1625.72 1367.49 1639.21 1362.74 1656.21C1358.94 1669.82 1349.11 1679.46 1336.96 1686.11C1288.31 1712.73 1172.24 1721.4 1119.11 1704.64C1085.07 1693.9 1070.78 1674.84 1054.99 1644.39C1034.27 1643.93 1013.57 1644.85 992.798 1644.2C978.758 1671.87 964.568 1693.18 933.518 1703.51C878.408 1721.86 763.898 1713.63 712.758 1686.78C699.918 1680.04 688.208 1670.36 684.218 1655.85C679.188 1637.55 688.278 1624.04 696.928 1608.76C686.598 1598.26 673.398 1589.04 660.738 1581.52Z" fill="black"/>
<path d="M1007.85 1000.21L1011.58 1003.27C1012.06 1005.45 1012.46 1007.38 1012.38 1009.62C1011.95 1021.67 992.398 1098.52 988.028 1113.11C987.168 1115.95 985.918 1117.68 983.838 1119.75C977.698 1112.25 975.008 1107.58 974.678 1097.74C973.668 1067.49 986.808 1022.21 1007.85 1000.21Z" fill="#386D8E"/>
<path d="M1040.65 1045.4C1039.06 1040.33 1037.56 1035.24 1036.14 1030.13C1033.91 1022 1029.37 1007.07 1033.59 999.67L1036.86 1000.15C1043.9 1006.09 1047.83 1012.38 1051.02 1020.98C1059.32 1042.67 1076.57 1086.23 1066.76 1108.92C1064.69 1113.72 1060.43 1118.31 1056.91 1122.1C1052.35 1100.96 1041.83 1065.32 1040.65 1045.4Z" fill="#5CA9DE"/>
<path d="M943.738 775.7C960.318 784.18 976.618 792.34 993.718 799.76C1003.66 804.02 1013.57 808.08 1023.76 811.72C1049.18 800.78 1075.7 790.56 1099.8 776.98C1077.5 804.84 1051.85 821.94 1020.96 839.36C1005.91 830.45 990.908 821.77 977.108 810.93C964.478 800.39 954.058 788.46 943.738 775.7Z" fill="#E58825"/>
<path d="M1057.54 982.33C1104.14 973.2 1145.6 961.28 1186.95 937.04C1199.89 929.46 1211.46 919.34 1224.55 912.32C1230.61 909.06 1233.14 910.01 1239.33 911.92C1227.08 913.8 1210.56 938.12 1200.02 946.4C1182.41 960.21 1158.87 974.33 1137.86 982.11C1124.17 987.18 1103.6 989.75 1091.74 997.97C1104.91 1001.61 1154.53 994.93 1175.87 997.37C1154.12 1002.05 1098.23 1001.99 1074.77 1000.62C1069.25 994.28 1063.44 988.31 1057.54 982.33Z" fill="#386D8E"/>
<path d="M777.978 925.59C789.608 916.81 802.658 912.61 816.358 908.22C870.078 947.23 921.068 972.69 987.478 982.71C980.948 988.98 974.278 995.15 968.098 1001.76C923.358 1000.43 878.518 998.65 833.778 997.88C800.728 997.31 767.298 998.03 734.328 995.89C736.278 984.91 737.638 972.57 743.738 963.01C741.678 973.13 739.681 983.26 737.748 993.4C807.088 994.613 876.411 996.476 945.718 998.99C933.288 993.38 920.178 989.17 907.668 983.61C871.038 967.33 834.988 943.69 809.628 912.26C799.168 916.91 788.758 921.72 777.978 925.59Z" fill="#386D8E"/>
<path d="M1001.5 720.72C1026.25 719.36 1049.95 719.58 1073.51 728.31C1087.24 733.39 1101.6 741.69 1107.95 755.52L1106.44 759.24C1088.91 773.41 1058.87 781.22 1037.55 789.38L1021.55 795.61C999.688 787.42 954.068 772.97 937.828 758.49C937.498 754.04 939.018 751.39 941.688 747.99C954.398 731.78 981.948 723.57 1001.5 720.72Z" fill="#E58825"/>
<path d="M809.628 912.26C834.988 943.69 871.038 967.33 907.668 983.61C920.178 989.17 933.288 993.38 945.718 998.99C876.411 996.476 807.088 994.613 737.748 993.4C739.681 983.26 741.678 973.13 743.738 963.01C752.518 946.96 763.348 936.1 777.978 925.59C788.758 921.72 799.168 916.91 809.628 912.26Z" fill="#5CA9DE"/>
<path d="M1239.33 911.92C1266.88 924.42 1293.1 939.33 1304.37 969.34C1307.61 977.95 1308.32 986.59 1309.05 995.66L1175.87 997.37C1154.53 994.93 1104.91 1001.61 1091.74 997.97C1103.6 989.75 1124.17 987.18 1137.86 982.11C1158.87 974.33 1182.41 960.21 1200.02 946.4C1210.56 938.12 1227.08 913.8 1239.33 911.92Z" fill="#5CA9DE"/>
<path d="M802.298 1591.38C809.678 1588.82 827.438 1599.72 834.948 1602.85C876.658 1620.27 918.748 1630.28 962.888 1638.86C959.308 1645.65 955.278 1652.47 950.098 1658.16C929.478 1680.81 899.098 1682.33 870.648 1683.6C859.181 1683.78 847.721 1683.54 836.268 1682.89C824.815 1682.24 813.401 1681.18 802.028 1679.7C782.128 1676.99 719.448 1667.84 709.638 1650.46C707.458 1646.6 707.778 1643.41 709.208 1639.37C716.198 1619.77 782.428 1599.94 802.298 1591.38Z" fill="#E58825"/>
<path d="M1239.23 1589.31C1266.95 1604.16 1302.87 1608.9 1327.17 1629.54C1332.67 1634.21 1335.69 1638.06 1336.4 1645.39C1335.6 1648.58 1334.74 1650.93 1332.46 1653.32C1308.51 1678.37 1217.98 1682.97 1183.31 1683.32C1166.73 1683.1 1149.61 1682.68 1133.42 1678.78C1107.63 1672.55 1094.29 1659.25 1080.96 1637.36C1133.34 1630.95 1192.36 1614.56 1239.23 1589.31Z" fill="#E58825"/>
<path d="M1268.23 1569.66C1323.5 1514.22 1342.56 1419.41 1343.09 1343.74C1343.21 1326.42 1339.73 1291.74 1345.36 1276.48L1348.12 1276.58L1351.13 1281.78L1347.4 1282.12C1343.1 1293.6 1345.61 1336.57 1345.51 1351.95C1387.17 1397.82 1435.63 1464.48 1431.81 1529.94C1431.34 1537.99 1429.46 1546.06 1427.68 1553.92C1448.31 1552.16 1467.98 1543.39 1485.79 1542.12C1452.96 1560.17 1430.57 1554.16 1396.15 1550.7C1364.04 1547.48 1341.58 1569.99 1318.6 1588.74C1302.16 1581.45 1285.37 1575.09 1268.23 1569.66Z" fill="#1F3D56"/>
<path d="M702.018 1266.27C698.228 1380.98 701.468 1476.19 777.648 1569.13C760.198 1575.77 741.838 1581.77 724.968 1589.69C702.428 1571.9 680.678 1548.13 649.648 1551.61C638.628 1552.85 627.678 1555.47 616.608 1556.26C593.458 1557.91 563.678 1550.32 545.248 1535.98C544.498 1535.39 543.768 1534.78 543.038 1534.18C569.538 1544.11 589.738 1553.37 618.628 1554.72C615.618 1542.97 612.968 1531.56 612.698 1519.37C611.418 1460.64 658.938 1391.98 698.338 1350.74C698.198 1338.7 700.968 1286.49 697.228 1280.41C693.778 1283.63 690.628 1287.02 687.468 1290.51C691.958 1282.06 696.368 1274.03 702.018 1266.27Z" fill="#1F3D56"/>
<path d="M1271.4 744.9C1279.69 762.06 1281.27 779.78 1274.86 797.94C1254.91 854.51 1199.61 900.52 1146.67 924.87C1068.68 960.74 1005.58 965.82 925.068 935.46C864.598 912.65 800.168 867.79 773.058 806.95C763.978 786.59 764.618 770.56 771.718 749.84C771.688 752.86 771.698 755.91 771.988 758.91C774.578 786.41 821.808 830.7 842.658 846.65C903.728 893.37 987.708 913.34 1063.57 902.76C1144.92 891.4 1210.01 854.11 1259.03 788.25C1270.05 773.44 1274.14 762.82 1271.4 744.9Z" fill="#A5BFE1"/>
<path d="M305.758 1392.67C356.278 1355.48 409.158 1321.33 460.948 1285.95C506.528 1254.81 551.098 1222.36 596.098 1190.41C576.338 1226.91 556.298 1285.7 542.398 1325.28C539.658 1327.81 539.138 1330.26 537.888 1333.7C531.498 1351.24 496.308 1394.68 483.568 1415.31C477.618 1424.94 468.788 1450.13 464.488 1455C461.228 1453.24 458.298 1451.49 455.348 1449.25C411.458 1410.79 363.968 1392.61 305.758 1392.67Z" fill="#5CA9DE"/>
<path d="M1446.94 1188.17C1496.48 1226.12 1548.35 1260.31 1599.87 1295.42L1738.57 1391.77C1680.7 1393.16 1638.55 1407.83 1593.8 1444.82C1588.34 1445.68 1582.2 1453.6 1578.42 1457.43C1566.48 1433.32 1554.52 1407.92 1539.4 1385.58C1531.25 1373.53 1520.33 1363.16 1512.99 1350.58C1506.79 1339.94 1504.63 1327.41 1498.95 1316.39C1498.67 1315.85 1498.38 1315.31 1498.1 1314.77C1482.69 1272.2 1465.9 1229.3 1446.94 1188.17Z" fill="#5CA9DE"/>
<path d="M687.468 1290.51C690.628 1287.02 693.778 1283.63 697.228 1280.41C700.968 1286.49 698.198 1338.7 698.338 1350.74C658.938 1391.98 611.418 1460.64 612.698 1519.37C612.968 1531.56 615.618 1542.97 618.628 1554.72C589.738 1553.37 569.538 1544.11 543.038 1534.18C514.318 1517.6 494.458 1492.98 473.048 1468.36C467.298 1461.75 460.788 1456.19 455.348 1449.25C458.298 1451.49 461.228 1453.24 464.488 1455C468.788 1450.13 477.618 1424.94 483.568 1415.31C496.308 1394.68 531.498 1351.24 537.888 1333.7C539.138 1330.26 539.658 1327.81 542.398 1325.28C542.278 1338.2 530.718 1366.5 527.818 1381.86C526.078 1391.07 524.948 1399.52 530.388 1407.63C534.738 1410.59 538.038 1411.04 543.078 1410C587.238 1400.87 661.078 1328.36 687.468 1290.51Z" fill="#386D8E"/>
<path d="M1345.51 1351.95C1345.61 1336.57 1343.1 1293.6 1347.4 1282.12L1351.13 1281.78C1353.11 1284.57 1355.13 1287.33 1357.19 1290.07C1359.24 1292.81 1361.33 1295.52 1363.45 1298.21C1365.57 1300.9 1367.73 1303.55 1369.92 1306.18C1372.1 1308.81 1374.32 1311.42 1376.58 1314C1378.83 1316.57 1381.12 1319.12 1383.44 1321.64C1385.75 1324.16 1388.1 1326.65 1390.48 1329.11C1392.86 1331.57 1395.27 1334 1397.71 1336.4C1400.15 1338.81 1402.62 1341.18 1405.12 1343.51C1407.62 1345.85 1410.14 1348.16 1412.7 1350.44C1415.26 1352.71 1417.84 1354.96 1420.46 1357.17C1423.07 1359.38 1425.71 1361.55 1428.38 1363.7C1431.04 1365.85 1433.74 1367.96 1436.46 1370.04C1439.18 1372.11 1441.92 1374.16 1444.7 1376.17C1447.46 1378.18 1450.26 1380.15 1453.08 1382.09C1455.9 1384.03 1458.75 1385.93 1461.62 1387.8C1464.48 1389.67 1467.37 1391.51 1470.29 1393.3C1480.05 1399.37 1492.15 1407.34 1503.66 1409.12C1507.97 1409.79 1510.7 1409.08 1514.67 1407.18C1518.71 1402.26 1519.43 1400.11 1518.75 1393.75C1515.81 1366.35 1502 1341.42 1498.1 1314.77C1498.38 1315.31 1498.67 1315.85 1498.95 1316.39C1504.63 1327.41 1506.79 1339.94 1512.99 1350.58C1520.33 1363.16 1531.25 1373.53 1539.4 1385.58C1554.52 1407.92 1566.48 1433.32 1578.42 1457.43C1582.2 1453.6 1588.34 1445.68 1593.8 1444.82C1588.37 1452.91 1579.67 1459.4 1573.03 1466.6C1542.21 1499.98 1526.74 1519.53 1485.79 1542.12C1467.98 1543.39 1448.31 1552.16 1427.68 1553.92C1429.46 1546.06 1431.34 1537.99 1431.81 1529.94C1435.63 1464.48 1387.17 1397.82 1345.51 1351.95Z" fill="#386D8E"/>
<path d="M763.148 1325.42L763.298 1327.47C764.328 1342.18 762.878 1356.92 764.528 1371.59C768.968 1411.1 793.788 1449.41 823.098 1475.34C884.328 1529.48 970.038 1547.63 1049.86 1541.98C1120.25 1537 1194.34 1509.76 1241.36 1455.12C1262.48 1430.58 1278.92 1399.51 1281.28 1366.82C1282.12 1355.23 1280.87 1343.29 1282.28 1331.8C1288.77 1362.53 1284.23 1417.71 1279.28 1448.51C1274.46 1478.51 1263.92 1536.96 1237.01 1555.45C1188.27 1588.93 1088.88 1609.85 1030.86 1611.35C1005.41 1612.01 979.708 1609.08 954.648 1604.77C915.178 1597.99 818.158 1574.8 795.188 1540.69C760.388 1489.01 752.068 1386.23 763.148 1325.42Z" fill="#A5BFE1"/>
<path d="M1072.59 698.04C1070.83 672.65 1070.99 647.11 1078.66 622.61C1087.47 594.44 1105.43 569.51 1132.25 556.13C1152.95 545.8 1176.46 543.62 1198.33 551.6C1244.13 568.32 1266.54 614.18 1266.78 660.7C1266.97 695.7 1255.59 709.71 1271.4 744.9C1274.14 762.82 1270.05 773.44 1259.03 788.25C1210.01 854.11 1144.92 891.4 1063.57 902.76C987.708 913.34 903.728 893.37 842.658 846.65C821.808 830.7 774.578 786.41 771.988 758.91C771.698 755.91 771.688 752.86 771.718 749.84L783.568 720.72C780.788 699.54 776.298 678.86 777.238 657.36C778.648 625.01 790.758 592.25 815.168 570.26C832.918 554.27 856.298 545.06 880.358 546.94C904.788 548.86 927.478 562.3 943.258 580.68C972.308 614.53 975.588 655.19 972.628 697.72C943.588 707.68 919.478 722.89 904.478 750.53C905.958 757.22 907.598 763.84 910.108 770.23C928.428 816.93 977.388 850.78 1021.85 869.53C1046.38 859.8 1069.97 845.3 1090.18 828.36C1114.36 808.1 1137.23 780.29 1140.05 747.81C1121.84 723.35 1102.47 706.47 1072.59 698.04Z" fill="#FEFEFE"/>
<path d="M883.338 615.51C891.308 615.61 899.238 617.55 906.048 621.77C918.078 629.25 925.608 642.01 928.248 655.75C931.258 671.42 928.098 688.87 918.638 701.87C910.278 713.37 899.728 718.94 885.858 720.83C878.088 720.42 870.858 719.91 863.948 715.98C852.298 709.36 844.518 698.29 841.228 685.4C837.288 669.98 839.428 652.53 847.898 638.95C856.518 625.11 867.948 619.36 883.338 615.51Z" fill="black"/>
<path d="M863.238 634.98C866.848 635.19 870.868 635.79 873.818 638.13C877.088 640.72 878.348 643.88 877.968 647.96C877.528 652.78 873.058 655.71 869.588 658.45C866.828 657.99 862.638 657.49 860.208 655.92C856.108 653.26 855.888 651.84 854.808 647.41C856.178 641.43 858.828 639.08 863.238 634.98Z" fill="#FEFEFE"/>
<path d="M1151.5 615.41C1159.79 614.9 1167.12 615.15 1174.97 618.21C1187.38 623.04 1196.7 633.25 1201.77 645.41C1202.15 646.35 1202.51 647.296 1202.85 648.25C1203.19 649.21 1203.5 650.176 1203.8 651.15C1204.08 652.123 1204.35 653.103 1204.59 654.09C1204.83 655.076 1205.04 656.066 1205.24 657.06C1205.43 658.06 1205.6 659.06 1205.74 660.06C1205.88 661.066 1205.99 662.076 1206.09 663.09C1206.18 664.096 1206.25 665.11 1206.29 666.13C1206.33 667.143 1206.34 668.156 1206.34 669.17C1206.32 670.183 1206.29 671.196 1206.23 672.21C1206.17 673.223 1206.08 674.236 1205.98 675.25C1205.86 676.256 1205.73 677.26 1205.57 678.26C1205.41 679.266 1205.22 680.266 1205.02 681.26C1204.8 682.246 1204.57 683.233 1204.31 684.22C1204.05 685.2 1203.76 686.173 1203.46 687.14C1203.15 688.106 1202.82 689.066 1202.47 690.02C1202.11 690.966 1201.73 691.906 1201.33 692.84C1195.22 706.87 1184.63 715.48 1170.78 721.21C1163 721.85 1154.97 721.54 1147.62 718.66C1134.56 713.53 1124.91 702.51 1119.75 689.66C1113.76 674.74 1112.99 657 1119.81 642.22C1126.45 627.83 1136.92 620.43 1151.5 615.41Z" fill="black"/>
<path d="M1174.47 634.92C1178.06 635.29 1181.84 635.98 1184.76 638.29C1188.56 641.31 1188.63 643.58 1189.26 647.99C1187.6 653.44 1185.62 655.12 1181.28 658.37C1178.67 657.68 1175.7 657.05 1173.29 655.83C1169.26 653.8 1168.03 651.47 1166.63 647.42C1167.76 641.48 1170.26 639.11 1174.47 634.92Z" fill="#FEFEFE"/>
<path d="M1234.49 484.27C1243.38 489.31 1248.15 496.97 1257.98 501.19C1262.22 503.03 1266.45 504.923 1270.66 506.87C1274.86 508.816 1279.03 510.813 1283.19 512.86C1287.34 514.913 1291.47 517.016 1295.57 519.17C1299.67 521.323 1303.74 523.526 1307.79 525.78C1311.83 528.033 1315.84 530.336 1319.83 532.69C1323.82 535.043 1327.78 537.446 1331.71 539.9C1335.63 542.353 1339.53 544.856 1343.4 547.41C1347.26 549.956 1351.1 552.553 1354.9 555.2C1358.7 557.846 1362.46 560.54 1366.2 563.28C1369.93 566.013 1373.63 568.796 1377.3 571.63C1380.96 574.463 1384.58 577.34 1388.18 580.26C1391.77 583.18 1395.33 586.146 1398.85 589.16C1402.37 592.166 1405.85 595.22 1409.29 598.32C1412.73 601.413 1416.14 604.553 1419.51 607.74C1422.87 610.92 1426.19 614.143 1429.48 617.41C1432.76 620.67 1436.01 623.973 1439.21 627.32C1442.41 630.666 1445.57 634.053 1448.69 637.48C1451.81 640.9 1454.88 644.36 1457.91 647.86C1460.94 651.36 1463.93 654.9 1466.88 658.48C1469.82 662.053 1472.71 665.663 1475.57 669.31C1478.42 672.956 1481.23 676.636 1484 680.35C1486.76 684.07 1489.47 687.823 1492.14 691.61C1494.8 695.39 1497.42 699.206 1500 703.06C1502.57 706.906 1505.1 710.786 1507.58 714.7C1510.05 718.613 1512.48 722.556 1514.86 726.53C1517.24 730.503 1519.57 734.506 1521.85 738.54C1524.13 742.573 1526.35 746.633 1528.53 750.72C1530.71 754.806 1532.83 758.92 1534.91 763.06C1536.98 767.2 1539 771.363 1540.98 775.55C1542.95 779.743 1544.87 783.96 1546.74 788.2C1548.6 792.433 1550.42 796.693 1552.18 800.98C1553.94 805.26 1555.64 809.563 1557.3 813.89C1558.77 817.716 1560.2 821.56 1561.58 825.42C1562.96 829.28 1564.3 833.153 1565.6 837.04C1566.9 840.933 1568.15 844.836 1569.36 848.75C1570.56 852.67 1571.73 856.6 1572.85 860.54C1573.97 864.486 1575.04 868.443 1576.08 872.41C1577.11 876.376 1578.1 880.356 1579.04 884.35C1579.98 888.336 1580.87 892.336 1581.73 896.35C1582.58 900.356 1583.39 904.376 1584.15 908.41C1584.91 912.436 1585.62 916.47 1586.29 920.51C1586.96 924.556 1587.59 928.61 1588.17 932.67C1588.74 936.73 1589.27 940.793 1589.77 944.86C1590.25 948.933 1590.69 953.01 1591.09 957.09C1591.48 961.17 1591.83 965.253 1592.14 969.34C1592.44 973.433 1592.69 977.526 1592.91 981.62C1593.12 985.713 1593.28 989.81 1593.4 993.91C1593.52 998.003 1593.59 1002.1 1593.62 1006.2C1593.64 1010.3 1593.62 1014.4 1593.56 1018.5C1593.5 1022.6 1593.39 1026.7 1593.23 1030.79C1593.07 1034.89 1592.86 1038.99 1592.62 1043.08C1592.36 1047.17 1592.07 1051.25 1591.73 1055.34C1591.39 1059.43 1591 1063.51 1590.57 1067.59C1590.13 1071.66 1589.65 1075.73 1589.13 1079.8C1588.6 1083.87 1588.03 1087.93 1587.41 1091.98C1586.79 1096.03 1586.13 1100.08 1585.42 1104.11C1584.71 1108.15 1583.96 1112.18 1583.16 1116.2C1582.36 1120.22 1581.51 1124.23 1580.63 1128.24C1579.73 1132.24 1578.8 1136.23 1577.83 1140.21C1576.85 1144.19 1575.82 1148.16 1574.75 1152.12C1573.68 1156.08 1572.57 1160.02 1571.41 1163.95C1570.25 1167.88 1569.05 1171.8 1567.81 1175.71C1566.56 1179.62 1565.27 1183.51 1563.94 1187.39C1562.6 1191.26 1561.23 1195.12 1559.81 1198.97C1555.19 1211.78 1547.63 1219.66 1558.14 1230.68C1541.33 1221.02 1525.24 1208.01 1509.5 1196.69C1438.68 1145.74 1386.88 1097.24 1333.28 1028.11C1342.57 1005.98 1341.21 981.86 1332.91 959.58C1318.84 921.79 1289.06 902.76 1253.92 886.71C1288.76 843.54 1314.91 799.16 1324.74 743.82C1337.77 670.52 1323.29 593.16 1277.68 533.26C1265.57 517.36 1245.91 501.39 1235.73 486.18C1235.31 485.55 1234.9 484.91 1234.49 484.27Z" fill="#5CA9DE"/>
<path d="M487.388 1231.52C488.788 1229.03 490.048 1226.72 489.478 1223.75C485.038 1200.61 472.228 1177.69 466.738 1154.33C465.465 1149.08 464.265 1143.82 463.138 1138.55C462.011 1133.27 460.955 1127.98 459.968 1122.67C458.988 1117.36 458.081 1112.04 457.248 1106.71C456.408 1101.38 455.645 1096.03 454.958 1090.68C454.271 1085.33 453.658 1079.97 453.118 1074.6C452.578 1069.23 452.111 1063.85 451.718 1058.47C451.325 1053.08 451.008 1047.7 450.768 1042.31C450.521 1036.92 450.351 1031.52 450.258 1026.12C450.165 1020.73 450.145 1015.33 450.198 1009.93C450.251 1004.54 450.381 999.143 450.588 993.75C450.788 988.356 451.065 982.966 451.418 977.58C451.771 972.193 452.198 966.813 452.698 961.44C453.198 956.066 453.771 950.7 454.418 945.34C455.065 939.986 455.788 934.64 456.588 929.3C457.381 923.96 458.248 918.633 459.188 913.32C460.135 908.006 461.151 902.706 462.238 897.42C491.648 758.4 578.288 628.52 696.758 549.55C715.091 537.443 734.028 526.37 753.568 516.33C770.588 507.74 788.818 500.5 804.708 489.92L806.728 488.55C795.108 500.8 783.118 512.14 772.438 525.32C732.178 575.03 713.438 634.81 715.078 698.42C716.818 766.26 742.878 838.4 791.978 886.59C756.988 901.71 727.978 921.83 713.608 958.54C706.388 976.98 702.238 1001.33 710.298 1019.97C711.188 1022.04 712.198 1024.03 713.298 1025.99C665.338 1089.97 617.778 1136.82 553.518 1184.37C531.798 1200.43 508.708 1215.02 487.388 1231.52Z" fill="#5CA9DE"/>
<path d="M427.218 1270.83C419.031 1252.27 411.708 1233.38 405.248 1214.15C403.595 1209.24 402.001 1204.3 400.468 1199.35C398.935 1194.39 397.465 1189.42 396.058 1184.43C394.645 1179.44 393.295 1174.43 392.008 1169.41C390.721 1164.38 389.498 1159.34 388.338 1154.29C387.178 1149.24 386.078 1144.17 385.038 1139.08C383.998 1134 383.025 1128.91 382.118 1123.81C381.205 1118.7 380.355 1113.59 379.568 1108.46C378.781 1103.33 378.058 1098.2 377.398 1093.05C376.738 1087.91 376.141 1082.76 375.608 1077.6C375.075 1072.44 374.605 1067.28 374.198 1062.11C373.798 1056.94 373.458 1051.76 373.178 1046.58C372.898 1041.4 372.685 1036.22 372.538 1031.04C372.385 1025.85 372.298 1020.67 372.278 1015.48C372.251 1010.3 372.291 1005.12 372.398 999.93C372.505 994.743 372.675 989.56 372.908 984.38C373.141 979.2 373.438 974.023 373.798 968.85C374.158 963.676 374.581 958.506 375.068 953.34C375.555 948.18 376.105 943.023 376.718 937.87C377.331 932.723 378.008 927.583 378.748 922.45C379.495 917.316 380.301 912.193 381.168 907.08C382.035 901.966 382.965 896.866 383.958 891.78C384.951 886.686 386.005 881.606 387.118 876.54C388.238 871.48 389.418 866.433 390.658 861.4C391.905 856.36 393.211 851.34 394.578 846.34C395.945 841.333 397.371 836.346 398.858 831.38C400.345 826.413 401.895 821.466 403.508 816.54C405.115 811.606 406.785 806.696 408.518 801.81C410.251 796.923 412.045 792.056 413.898 787.21C415.745 782.363 417.655 777.543 419.628 772.75C421.601 767.95 423.631 763.176 425.718 758.43C427.805 753.683 429.951 748.963 432.158 744.27C434.358 739.576 436.618 734.91 438.938 730.27C441.325 725.476 443.771 720.713 446.278 715.98C448.785 711.246 451.348 706.543 453.968 701.87C456.588 697.203 459.265 692.566 461.998 687.96C464.731 683.353 467.518 678.78 470.358 674.24C473.205 669.706 476.105 665.206 479.058 660.74C482.018 656.273 485.028 651.843 488.088 647.45C491.148 643.056 494.265 638.7 497.438 634.38C500.605 630.066 503.825 625.79 507.098 621.55C510.378 617.31 513.705 613.113 517.078 608.96C520.458 604.8 523.885 600.683 527.358 596.61C530.838 592.536 534.365 588.506 537.938 584.52C541.511 580.533 545.135 576.59 548.808 572.69C552.481 568.79 556.201 564.936 559.968 561.13C563.735 557.323 567.548 553.563 571.408 549.85C575.261 546.136 579.161 542.47 583.108 538.85C587.061 535.23 591.055 531.66 595.088 528.14C599.121 524.62 603.198 521.146 607.318 517.72C611.438 514.3 615.598 510.93 619.798 507.61C624.005 504.29 628.248 501.02 632.528 497.8C636.808 494.586 641.128 491.423 645.488 488.31C649.848 485.203 654.245 482.146 658.678 479.14C663.111 476.133 667.581 473.183 672.088 470.29C676.595 467.396 681.135 464.56 685.708 461.78C690.288 458.993 694.898 456.266 699.538 453.6C704.178 450.926 708.851 448.31 713.558 445.75C718.265 443.196 723.001 440.7 727.768 438.26C732.535 435.82 737.331 433.436 742.158 431.11C746.985 428.79 751.838 426.526 756.718 424.32C761.598 422.113 766.505 419.966 771.438 417.88C776.371 415.793 781.328 413.77 786.308 411.81C791.288 409.843 796.295 407.94 801.328 406.1C806.355 404.26 811.405 402.48 816.478 400.76C819.831 399.653 823.195 398.576 826.568 397.53C829.948 396.483 833.331 395.463 836.718 394.47C840.111 393.476 843.511 392.51 846.918 391.57C850.325 390.63 853.738 389.72 857.158 388.84C860.578 387.96 864.005 387.106 867.438 386.28C870.878 385.453 874.321 384.656 877.768 383.89C881.215 383.123 884.668 382.383 888.128 381.67C891.588 380.956 895.055 380.273 898.528 379.62C902.001 378.966 905.478 378.343 908.958 377.75C912.445 377.15 915.931 376.58 919.418 376.04C922.911 375.5 926.408 374.99 929.908 374.51C933.408 374.03 936.911 373.576 940.418 373.15C943.925 372.723 947.438 372.326 950.958 371.96C954.471 371.593 957.988 371.256 961.508 370.95C965.028 370.643 968.548 370.363 972.068 370.11C975.595 369.856 979.121 369.636 982.648 369.45C986.175 369.256 989.705 369.09 993.238 368.95C996.765 368.816 1000.29 368.713 1003.83 368.64C1007.36 368.56 1010.89 368.513 1014.43 368.5C1017.96 368.48 1021.49 368.49 1025.03 368.53C1028.56 368.57 1032.09 368.64 1035.62 368.74C1039.15 368.833 1042.68 368.96 1046.22 369.12C1049.74 369.273 1053.27 369.456 1056.8 369.67C1060.32 369.89 1063.85 370.133 1067.37 370.4C1070.89 370.673 1074.41 370.976 1077.93 371.31C1081.45 371.636 1084.96 371.996 1088.48 372.39C1091.99 372.776 1095.5 373.193 1099 373.64C1102.5 374.086 1106.01 374.56 1109.51 375.06C1113 375.566 1116.49 376.1 1119.98 376.66C1123.47 377.22 1126.95 377.81 1130.43 378.43C1133.91 379.043 1137.38 379.69 1140.85 380.37C1144.32 381.043 1147.78 381.746 1151.24 382.48C1158.46 384.05 1188.62 388.73 1192.9 390.87C1194.23 394.03 1193.44 393.8 1196.96 395.34C1218.15 404.61 1243.43 408.09 1265.28 417.62C1281.4 424.65 1324.48 447.71 1338.53 450.55C1359.03 458.22 1380.61 474.79 1398.54 487.54C1401.47 489.586 1404.38 491.656 1407.28 493.75C1410.17 495.85 1413.05 497.973 1415.91 500.12C1418.77 502.26 1421.61 504.426 1424.44 506.62C1427.26 508.813 1430.06 511.03 1432.85 513.27C1435.63 515.503 1438.4 517.763 1441.16 520.05C1443.9 522.336 1446.63 524.646 1449.34 526.98C1452.05 529.306 1454.74 531.66 1457.41 534.04C1460.08 536.413 1462.73 538.81 1465.37 541.23C1467.99 543.65 1470.6 546.093 1473.19 548.56C1475.78 551.026 1478.35 553.513 1480.9 556.02C1483.44 558.526 1485.97 561.053 1488.48 563.6C1490.98 566.153 1493.47 568.723 1495.93 571.31C1498.39 573.903 1500.83 576.516 1503.25 579.15C1505.67 581.783 1508.06 584.436 1510.44 587.11C1512.81 589.776 1515.16 592.466 1517.5 595.18C1519.82 597.893 1522.13 600.626 1524.41 603.38C1526.69 606.126 1528.95 608.893 1531.19 611.68C1533.43 614.473 1535.64 617.28 1537.83 620.1C1540.02 622.926 1542.19 625.77 1544.33 628.63C1546.47 631.496 1548.58 634.376 1550.68 637.27C1552.78 640.17 1554.85 643.086 1556.89 646.02C1558.93 648.946 1560.95 651.893 1562.95 654.86C1564.95 657.826 1566.92 660.81 1568.87 663.81C1570.81 666.81 1572.73 669.823 1574.63 672.85C1576.52 675.883 1578.39 678.93 1580.23 681.99C1582.07 685.056 1583.89 688.136 1585.69 691.23C1587.48 694.316 1589.25 697.423 1590.99 700.55C1592.73 703.67 1594.44 706.806 1596.13 709.96C1597.81 713.106 1599.47 716.27 1601.11 719.45C1602.75 722.63 1604.36 725.823 1605.94 729.03C1607.52 732.236 1609.07 735.456 1610.6 738.69C1612.12 741.916 1613.62 745.16 1615.1 748.42C1617.26 753.06 1619.36 757.723 1621.4 762.41C1623.44 767.103 1625.43 771.82 1627.36 776.56C1629.28 781.293 1631.15 786.053 1632.96 790.84C1634.76 795.626 1636.51 800.433 1638.21 805.26C1639.89 810.093 1641.52 814.943 1643.09 819.81C1644.66 824.676 1646.17 829.563 1647.62 834.47C1649.06 839.376 1650.45 844.303 1651.78 849.25C1653.1 854.19 1654.37 859.146 1655.58 864.12C1656.78 869.086 1657.92 874.07 1659 879.07C1660.08 884.07 1661.1 889.083 1662.06 894.11C1663.01 899.136 1663.9 904.173 1664.74 909.22C1665.57 914.273 1666.34 919.333 1667.04 924.4C1667.74 929.466 1668.39 934.54 1668.97 939.62C1669.55 944.7 1670.07 949.79 1670.53 954.89C1670.98 959.983 1671.37 965.083 1671.7 970.19C1672.02 975.296 1672.29 980.403 1672.49 985.51C1672.69 990.623 1672.83 995.736 1672.91 1000.85C1672.98 1005.97 1672.99 1011.09 1672.94 1016.2C1672.88 1021.31 1672.77 1026.43 1672.6 1031.54C1672.42 1036.65 1672.17 1041.76 1671.87 1046.87C1671.56 1051.98 1671.19 1057.08 1670.77 1062.18C1670.33 1067.27 1669.84 1072.36 1669.28 1077.45C1668.72 1082.54 1668.1 1087.62 1667.42 1092.69C1666.74 1097.76 1665.99 1102.82 1665.19 1107.87C1664.37 1112.92 1663.5 1117.96 1662.57 1122.99C1661.63 1128.02 1660.64 1133.03 1659.59 1138.04C1658.53 1143.05 1657.41 1148.04 1656.23 1153.02C1655.05 1157.99 1653.8 1162.95 1652.5 1167.9C1651.19 1172.85 1649.82 1177.78 1648.4 1182.69C1646.98 1187.6 1645.49 1192.5 1643.94 1197.38C1642.39 1202.25 1640.78 1207.11 1639.12 1211.95C1637.45 1216.78 1635.72 1221.6 1633.94 1226.39C1628.46 1241.09 1622.37 1255.53 1615.66 1269.71C1597.14 1256.09 1577.79 1242.61 1558.14 1230.68C1547.63 1219.66 1555.19 1211.78 1559.81 1198.97C1561.23 1195.12 1562.6 1191.26 1563.94 1187.39C1565.27 1183.51 1566.56 1179.62 1567.81 1175.71C1569.05 1171.8 1570.25 1167.88 1571.41 1163.95C1572.57 1160.02 1573.68 1156.08 1574.75 1152.12C1575.82 1148.16 1576.85 1144.19 1577.83 1140.21C1578.8 1136.23 1579.73 1132.24 1580.63 1128.24C1581.51 1124.23 1582.36 1120.22 1583.16 1116.2C1583.96 1112.18 1584.71 1108.15 1585.42 1104.11C1586.13 1100.08 1586.79 1096.03 1587.41 1091.98C1588.03 1087.93 1588.6 1083.87 1589.13 1079.8C1589.65 1075.73 1590.13 1071.66 1590.57 1067.58C1591 1063.51 1591.39 1059.43 1591.73 1055.34C1592.07 1051.25 1592.36 1047.17 1592.62 1043.08C1592.86 1038.99 1593.07 1034.89 1593.23 1030.79C1593.39 1026.7 1593.5 1022.6 1593.56 1018.5C1593.62 1014.4 1593.64 1010.3 1593.62 1006.2C1593.59 1002.1 1593.52 998.003 1593.4 993.91C1593.28 989.81 1593.12 985.713 1592.91 981.62C1592.69 977.526 1592.44 973.433 1592.14 969.34C1591.83 965.253 1591.48 961.17 1591.09 957.09C1590.69 953.01 1590.25 948.933 1589.77 944.86C1589.27 940.793 1588.74 936.73 1588.17 932.67C1587.59 928.61 1586.96 924.556 1586.29 920.51C1585.62 916.47 1584.91 912.436 1584.15 908.41C1583.39 904.376 1582.58 900.356 1581.73 896.35C1580.87 892.336 1579.98 888.336 1579.04 884.35C1578.1 880.356 1577.11 876.376 1576.08 872.41C1575.04 868.443 1573.97 864.486 1572.85 860.54C1571.73 856.6 1570.56 852.67 1569.36 848.75C1568.15 844.83 1566.9 840.926 1565.6 837.04C1564.3 833.153 1562.96 829.28 1561.58 825.42C1560.2 821.56 1558.77 817.716 1557.3 813.89C1555.64 809.563 1553.94 805.26 1552.18 800.98C1550.42 796.693 1548.6 792.433 1546.74 788.2C1544.87 783.96 1542.95 779.743 1540.98 775.55C1539 771.363 1536.98 767.2 1534.91 763.06C1532.83 758.92 1530.71 754.806 1528.53 750.72C1526.35 746.633 1524.13 742.573 1521.85 738.54C1519.57 734.506 1517.24 730.503 1514.86 726.53C1512.48 722.556 1510.05 718.613 1507.58 714.7C1505.1 710.786 1502.57 706.906 1500 703.06C1497.42 699.206 1494.8 695.39 1492.14 691.61C1489.47 687.823 1486.76 684.07 1484 680.35C1481.23 676.636 1478.42 672.956 1475.57 669.31C1472.71 665.663 1469.82 662.053 1466.88 658.48C1463.93 654.9 1460.94 651.36 1457.91 647.86C1454.88 644.36 1451.81 640.9 1448.69 637.48C1445.57 634.053 1442.41 630.666 1439.21 627.32C1436.01 623.973 1432.76 620.67 1429.48 617.41C1426.19 614.143 1422.87 610.92 1419.51 607.74C1416.14 604.553 1412.73 601.413 1409.29 598.32C1405.85 595.22 1402.37 592.166 1398.85 589.16C1395.33 586.146 1391.77 583.18 1388.18 580.26C1384.58 577.34 1380.96 574.463 1377.3 571.63C1373.63 568.796 1369.93 566.013 1366.2 563.28C1362.46 560.54 1358.7 557.846 1354.9 555.2C1351.1 552.553 1347.26 549.956 1343.4 547.41C1339.53 544.856 1335.63 542.353 1331.71 539.9C1327.78 537.446 1323.82 535.043 1319.83 532.69C1315.84 530.336 1311.83 528.033 1307.79 525.78C1303.74 523.526 1299.67 521.323 1295.57 519.17C1291.47 517.016 1287.34 514.913 1283.19 512.86C1279.03 510.813 1274.86 508.816 1270.66 506.87C1266.45 504.923 1262.22 503.03 1257.98 501.19C1248.15 496.97 1243.38 489.31 1234.49 484.27C1168.77 426.99 1088.86 396.64 1001.24 402.34C927.828 407.12 861.058 440.04 806.728 488.55L804.708 489.92C788.818 500.5 770.588 507.74 753.568 516.33C734.028 526.37 715.091 537.443 696.758 549.55C578.288 628.52 491.648 758.4 462.238 897.42C461.151 902.706 460.135 908.006 459.188 913.32C458.248 918.633 457.381 923.96 456.588 929.3C455.788 934.64 455.065 939.986 454.418 945.34C453.771 950.7 453.198 956.066 452.698 961.44C452.198 966.813 451.771 972.193 451.418 977.58C451.065 982.966 450.788 988.356 450.588 993.75C450.381 999.143 450.251 1004.54 450.198 1009.93C450.145 1015.33 450.165 1020.73 450.258 1026.12C450.351 1031.52 450.521 1036.92 450.768 1042.31C451.008 1047.7 451.325 1053.08 451.718 1058.47C452.111 1063.85 452.578 1069.23 453.118 1074.6C453.658 1079.97 454.271 1085.33 454.958 1090.68C455.645 1096.03 456.408 1101.38 457.248 1106.71C458.081 1112.04 458.988 1117.36 459.968 1122.67C460.955 1127.98 462.011 1133.27 463.138 1138.55C464.265 1143.82 465.465 1149.08 466.738 1154.33C472.228 1177.69 485.038 1200.61 489.478 1223.75C490.048 1226.72 488.788 1229.03 487.388 1231.52C466.878 1241.18 446.278 1258.16 427.218 1270.83Z" fill="#FEFEFE"/>
<path d="M878.818 1031C905.785 1031.48 932.751 1031.63 959.718 1031.46C951.868 1058.77 936.768 1098.03 951.738 1124.57C957.928 1135.54 972.848 1153.89 986.028 1156.09C990.658 1156.86 993.888 1155.88 997.518 1153.05C1012.92 1141.06 1017.01 1119.27 1021.78 1101.44C1025.9 1116.33 1031.05 1146.7 1045.15 1154.97C1049.64 1157.6 1053.9 1158.05 1058.85 1156.32C1074.01 1151.04 1087.81 1131.65 1093.62 1117.39C1102.91 1094.61 1092.39 1054.11 1084.12 1032.07C1110.6 1032.67 1137.1 1031.5 1163.58 1031.16C1184.36 1053.01 1204.64 1075.15 1220.45 1100.98C1260.63 1166.61 1273.13 1256.59 1282.28 1331.8C1280.87 1343.29 1282.12 1355.23 1281.28 1366.82C1278.92 1399.51 1262.48 1430.58 1241.36 1455.12C1194.34 1509.76 1120.25 1537 1049.86 1541.98C970.038 1547.63 884.328 1529.48 823.098 1475.34C793.788 1449.41 768.968 1411.1 764.528 1371.59C762.878 1356.92 764.328 1342.18 763.298 1327.47L763.148 1325.42C766.978 1263.95 791.188 1158 821.718 1104.74C837.258 1077.64 858.228 1054.31 878.818 1031Z" fill="#FEFEFE"/>
</svg>
